# xmcd
#
# Track frame offsets: 
#        150
#        15415
#        33353
#        47560
#        63415
#        80625
#        94625
#        112123
#        127943
#        144128
#        161785
#        177125
#        190865
#        202125
#
# Disc length: 2894 seconds
#
# Revision: 3
# Processed by: cddbd v1.5.2PL0 Copyright (c) Steve Scherf et al.
# Submitted via: ExactAudioCopy v1.0b1
#
DISCID=b60b4c0e
DTITLE=Various Artist - Country Hot Hits - Volume 18
DYEAR=1992
DGENRE=Country
TTITLE0=Marty Stuart - Now That's Country
TTITLE1=John Anderson - Seminole Wind
TTITLE2=Pam Tillis - Shake The Sugar Tree
TTITLE3=George Strait - I Cross My Heart
TTITLE4=Brooks and Dunn - Lost and Found
TTITLE5=Mark Chesnutt - Bubba Shot The Jukebox
TTITLE6=Martina McBride - That's Me
TTITLE7=Joe Diffie - Next Thing Smokin'
TTITLE8=Lorrie Morgan - Watch Me
TTITLE9=Steve Wariner - Crash Course In The Blues
TTITLE10=Mary Chapin-Carpenter with Joe Diffie - Not Too Much To Ask
TTITLE11=Lee Roy Parnell - Love Without Mercy
TTITLE12=Sammy Kershaw - Anywhere But Here
TTITLE13=Billy Dean - If There Hadn't Been You
EXTD=
EXTT0=Stuart - Marty
EXTT1=Anderson - John
EXTT2=Tillis - Pam
EXTT3=Strait - George
EXTT4=Brooks and Dunn
EXTT5=Chesnutt - Mark
EXTT6=McBride - Martina
EXTT7=Diffie - Joe
EXTT8=Morgan - Lorrie
EXTT9=Wariner - Steve
EXTT10=Carpenter - Mary-Chapin with Diffie - Joe
EXTT11=Parnell - Lee Roy
EXTT12=Kershaw - Sammy
EXTT13=Dean - Billy
PLAYORDER=
